<?xml version="1.0" encoding="utf-8"?>
<!-- Generator: Adobe Illustrator 18.1.0, SVG Export Plug-In . SVG Version: 6.00 Build 0)  -->
<!DOCTYPE svg PUBLIC "-//W3C//DTD SVG 1.1//EN" "http://www.w3.org/Graphics/SVG/1.1/DTD/svg11.dtd">
<svg version="1.1" id="Layer_1" xmlns="http://www.w3.org/2000/svg" xmlns:xlink="http://www.w3.org/1999/xlink" x="0px" y="0px"
	 viewBox="0 0 236.9 216.9" enable-background="new 0 0 236.9 216.9" xml:space="preserve">
<g>
	<path fill="#FFFFFF" d="M141,150.4c-2.6,6.4-14.2,9.6-20.4,3.5c-0.8,0.4-1.6,0.8-2.4,1.2c-3.9,1.8-8.6,0.2-11.1-3.4
		c-2.1-3.1-3.9-6.4-4.8-10.1c-0.2-0.7-0.6-1.4-1-2.4c-0.5,0.6-0.8,0.9-1,1.3c-1.7,4.1-2,8.3-0.8,12.5c0.2,0.8,0.4,1.6,0.5,2.5
		c0.2,2.1-0.9,3.6-3.1,4.6c-1.7,0.8-3.4,0.3-4.9-1.2c-0.1-0.1-0.2-0.2-0.4-0.3c-3.2,0.6-6.7,1.4-9-2.7c-0.4,0.8-0.8,1.2-0.9,1.7
		c-0.8,2.6-2.8,3.6-5.3,4c-0.4,0.1-0.9,0-1.3-0.2c-1.5-0.5-2.4,0.2-2.2,1.8c0.1,0.9,0.4,1.8,0.5,2.7c1,4.9,2.2,9.9,3.1,14.8
		c1,6.2,1.1,12.4,0.1,18.6c-0.6,3.6-1.7,7-3.4,10.2c-1,1.8-1.9,3.6-3,5.2c-1.3,1.9-3.8,2.9-6.2,1.8c-1.1-0.5-1.6-1.3-1.9-2.3
		c-0.8-2.9-1.9-5.8-2.3-8.8c-0.3-2.5-0.3-5.1-0.7-7.7c-0.7-4.5,0.3-8.9,0.4-13.4c0.1-3.8,0.9-7.5,1.4-11.3c0.2-1.4,0.3-2.8,0.5-4.5
		c-1.4-0.1-2.6-0.2-3.9-0.3c-3-0.1-5.9-0.4-8.8-1.3c-3.2-1-6.4-1.9-9.6-3c-3.8-1.3-6.7-3.8-9.3-6.8c-3.8-4.6-5.9-9.9-7.6-15.6
		c-1-3.4-1.2-6.7-1.4-10.1c-0.1-4.3,0.6-8.6,1.9-12.6c1.2-3.7,3.4-7,6.1-9.8c1.5-1.6,3.7-2.6,5.9-2.5c2.1,0.1,4.3,0.5,6.2,1.3
		c4.3,1.8,8.1,4.5,11,8.2c2.2,2.8,4.2,5.8,5.9,8.9c3.3,5.8,6,11.9,8.1,18.2c0.7,1.9,1.6,3.8,2.5,6.1c0.3-0.7,0.5-1.1,0.6-1.5
		c0.1-1.2,0.1-2.5,0.1-3.7c0-3.6,0.8-7,2.7-10c1.3-2.1,4.5-3,6.5-1.8c1.2,0.7,2.3,1.6,3.5,2.5c0.5,0.3,0.8,0.8,1.3,1.1
		c2.1,1.3,2.7,3.3,3.4,5.5c0.5,1.5,0.5,3,0.2,4.6c-0.3,1.3,0.3,2.4,1.4,3.3c1-1.1,0.8-2.4,0.6-3.5c-0.3-2-0.8-3.9-1.1-5.9
		c-0.2-0.8-0.3-1.7-0.3-2.5c0.1-2.1,1.3-3.5,3.2-3.3c1.4,0.1,2.8,0.5,4.4,0.9c0.1-0.2,0.5-0.5,0.8-0.9c1.1-1.3,2-2.7,3.3-3.8
		c1-0.9,2.2-1.3,3.8-1c2.2,0.3,3.5,1.6,4.3,3.5c0.5,1.1,0.8,2.2,1.1,3.3c0.8,3.5,2.1,6.8,3.7,10c0.4,0.9,1.1,1.6,1.7,2.4
		c0.9,1,1.2,1,2.2,0.2c0.4-0.3,0.7-0.5,1.1-0.9c-0.3-1.2-0.5-2.3-0.8-3.4c-1-4.2-0.8-8.4,0.2-12.5c0.4-1.6,0.9-3.3,2.1-4.5
		c1.2-1.2,2.5-1.7,4.4-1.2c2.8,0.7,3.7,2.9,4.5,5.1c1.2,3.2,1,6.6,0.2,10c-0.5,1.9-1.1,3.8-1.7,5.7c-0.3,0.9-0.1,1.6,0.6,2.2
		c1.6,1.5,3.3,2.1,5.5,1.6c1.5-0.4,3-0.6,4.5-1C138.2,148.9,139.7,149,141,150.4z M56.8,161c0.3,0,0.7,0,1,0
		c1.4-0.2,2.9-0.2,4.2-0.6c1.6-0.4,1.9-1.2,1.6-2.8c-0.1-0.3-0.1-0.6-0.2-0.9c-1.7-4.6-3-9.3-5-13.8c-3-6.6-5.8-13.4-9.9-19.5
		c-1.9-2.9-4.2-5.4-6.9-7.5c-1.5-1.1-3.3-1.5-5.2-1.4c-1.7,0.1-3.1,0.8-4.3,2.3c-3.4,4.1-4.4,8.9-4.6,13.9
		c-0.2,4.5,0.8,8.9,2.3,13.1c1.1,3,2.5,5.9,4.9,8.1c3.5,3.2,7.4,5.9,12.1,7.2C49.9,160.1,53.2,161.1,56.8,161z M67.2,203.9
		c0.5-0.6,0.9-0.9,1.1-1.3c0.4-0.8,0.6-1.7,0.9-2.6c1.2-4.6,1.3-9.2,0.9-13.8c-0.2-2.2-0.6-4.5-0.9-6.7c-0.3-1.7-0.5-3.3-0.9-4.9
		c-0.1-0.3-0.4-0.5-0.9-1.1C65.9,183.8,65.1,193.6,67.2,203.9z M76.6,144.8c0.1,0,0.3,0.1,0.4,0.1c0-0.3,0.1-0.5,0.1-0.8
		c0,0-0.3-0.1-0.3-0.1C76.8,144.2,76.7,144.5,76.6,144.8z"/>
	<path fill="#FFFFFF" d="M124.4,33.8c1-0.4,1.9-1,2.8-1.1c0.8,0,1.6,0.6,2.7,1c0.1-0.9,0.3-1.6,0.3-2.3c0.2-5,0.7-10-0.2-14.9
		c-0.1-0.7,0-1.4,0.2-2.1c0.2-0.9,0.9-1.4,1.9-1.2c0.6,0.1,1.2,0.1,1.7,0.3c2.3,0.6,3.4,1.7,3.5,4.2c0.1,3.8,0.1,7.7,0.1,11.5
		c0,0.3,0,0.5,0,1.1c0.5-3.4,1.1-3.6,4.1-2.5c1.7,0.7,3.2,1.4,3.4,3.5c1.1,0.1,2.1,0,3.1,0.2c3,0.5,4.7,2.4,5.2,5.5
		c0.4,2.6,1.5,5,3,7.1c0.3,0.4,0.8,0.9,1.1,0.8c0.5-0.1,1-0.6,1.2-1.1c0.6-1.6,0.9-3.2,0.7-4.9c-0.3-2.9-1.2-5.7-2.1-8.5
		c-0.3-1-0.7-2.1-0.9-3.2c-0.3-1.7,0.7-2.5,2.3-2c0.9,0.3,1.7,0.6,2.5,1c1.3,0.6,2.2,1.5,2.2,3.1c0,0.5,0.3,1.1,0.5,1.7
		c1-1.2,1.9-2.2,2.8-3.2c1.3-1.4,2.9-1.9,4.8-1.3c2.3,0.7,4.7,1.4,6.5,3.2c1,0.9,1.4,2,1.4,3.3c0,1.1,0.1,2.2,0,3.3
		c-0.1,2.6,0.8,5.1,1.4,7.6c0,0.2,0.2,0.3,0.5,0.5c2-2.5,3.1-5.3,3.4-8.4c0.1-1.5,0.2-3.1,0.4-4.6c0.3-1.9,1.3-2.6,3.1-2
		c2.8,0.9,4.3,2.4,3.9,6c-0.2,1.7-0.2,3.5-0.2,5.2c0,0.2,0.2,0.3,0.3,0.6c1.6-1.9,2.3-4.1,2.6-6.4c0.1-1.1,0.1-2.2,0.3-3.3
		c0.3-1.9,1.8-2.7,3.6-1.9c1.7,0.8,3,2,3.3,4c0.6,3,1.1,6,1.7,9.2c0.8-1.7,1.6-3.4,2.3-5c2.4-5.1,3.3-10.6,4.3-16.1
		c0-0.1,0-0.3,0-0.4c0.4-2.6,1.7-3.2,4.1-2c2.7,1.4,4.5,3.7,5.7,6.4c2.1,4.5,3.6,9.1,4.9,13.9c0.3,1,0.5,2.2,0.5,3.2
		c0,4-1.9,6.5-5.8,7.9c-2.9,1.1-5.9,2-9.1,1.7c-0.9-0.1-1.8-0.3-3-0.6c-0.9,1-1,2.7-1.3,4.1c-0.9,3.4-1,6.9-1.1,10.4
		c-0.1,6.1-0.4,12.3-1.6,18.4c-0.5,2.6-1.8,5-4.4,6.3c-3.5,1.8-5.5-0.6-6-3.2c-0.5-2.8-0.3-5.7,0.4-8.5c1.1-4.6,2.4-9.3,3.5-13.9
		c0.3-1.5,0.3-3.1,0.2-4.6c-0.2-4.2-0.5-8.4-0.8-13.1c-0.8,0.7-1.3,1-1.8,1.4c-2.8,2.5-5.3,2.5-8-0.4c-0.4,0.3-0.7,0.6-1.1,1
		c-0.4,0.4-0.7,0.9-1.2,1.3c-2.4,2.2-4.5,2.2-7,0c-1.3-1.2-1.4-1.2-2.8-0.1c-2.8,2.2-6.6,1.7-8.6-0.7c-0.5-0.6-1.1-1.1-1.5-1.6
		c-1.2,1-2.3,2-3.5,2.9c-1.1,0.8-2.4,0.8-3.7,0.4c-3-1.1-5.1-3.3-6.8-5.8c-0.2-0.3-0.3-0.5-0.6-1c-0.8,1.4-1.1,2.7-1.6,4
		c-0.3,0.7-0.5,1.4-0.9,1.9c-1.4,1.8-4.2,1.7-5.7-0.2c-1-1.2-1.6-2.5-2-4.1c-0.9-4.3-0.8-8.8-1.5-13.1c-0.1-0.5-0.2-1.1-0.3-1.6
		c-0.1,0-0.3,0-0.4,0c-0.2,0.3-0.5,0.7-0.4,1c0.1,4.6,0,9.2,0.9,13.8c0.3,1.3,0.8,2.4,1.8,3.3c2.1,1.9,4.2,3.8,6.4,5.7
		c1,0.9,1.2,2,0.9,3.2c-0.3,1.2-1.2,1.9-2.6,2c-1.9,0.2-3.4-0.4-4.3-2.2c-0.9-1.8-2.3-3.1-3.8-4.3c-3-2.4-6-4.9-8.6-7.8
		c-0.5-0.6-1.2-1-1.8-1.6c-0.4,0.4-0.7,0.7-0.9,1.1c-2.5,4.3-4.9,8.5-6.6,13.2c-0.8,2.1-1.8,4.2-2.5,6.3c-0.5,1.6-0.7,3.3-1,4.9
		c-0.4,2.1-2.6,3.7-5.1,2.7c-1.6-0.7-3.1-3.3-2.8-5c1.3-7.3,0.8-14.7,0.9-22.1c0-2.4,0.2-4.9,0.2-7.3c-0.1-2.9-0.3-5.8-0.5-8.7
		c-0.3-3.5-0.5-7-0.9-10.5c-0.1-1.2-0.4-2.4-0.9-3.5c-0.4-1-0.6-2-0.5-3c0.2-2.1,1.4-3,3.5-2.3c1.9,0.6,3.6,1.5,4.3,3.7
		c0.7,2.2,1.8,4.3,2.7,6.5c0.4,0.8,0.7,1.7,1.2,2.4c2,3.1,4,6.2,6.1,9.2C123.6,33,124.1,33.4,124.4,33.8z M209.8,45.8
		c0.6,0.2,0.9,0.4,1.3,0.4c2.1,0.3,3.9-0.5,5.7-1.5c1.6-0.9,2-2.2,1.8-4.1c-0.4-3.8-2-7.2-3.2-10.8c0-0.1-0.2-0.1-0.4-0.2
		c-1.5,4.2-3.1,8.5-4.5,12.7C210.1,43.4,210,44.6,209.8,45.8z M115.8,47.5c1.7-2.8,3.1-5.4,4.6-7.8c0.4-0.7,0.2-1.2-0.2-1.7
		c-1.3-1.6-2.5-3.3-3.8-4.9c-0.2-0.3-0.5-0.4-0.9-0.7c-0.1,0.4-0.3,0.6-0.3,0.9c0,4.3,0.1,8.6,0.2,12.9
		C115.4,46.5,115.6,46.8,115.8,47.5z M171.2,34.6c-2.1,2.5-2.5,7.8-0.8,10.6C173.6,43.7,174,39.1,171.2,34.6z"/>
	<path fill="#FFFFFF" d="M41.2,52.1c-0.4-0.8-0.8-1.7-1.2-2.4c-1.2-2.3-1.5-4.8-1.6-7.3c0-0.6,0.2-1.1,0.3-1.7
		c0.1-0.8,0.5-1.5,0.4-2.3c-0.2-3.2,1.4-5.7,3.3-7.8c1.4-1.6,3.6-2.1,5.7-1.7c2.3,0.4,4.6,1,7,1.6C55.2,30,55.1,29.5,55,29
		c-0.2-0.9-0.2-1.6,0.6-2.3c0.8-0.6,1.7-0.6,2.6-0.2c2.6,1.1,4.7,2.7,6,5.2c0.6,1.1,1.2,2.1,2.1,3.5c0.4-0.9,0.8-1.5,1-2.1
		c0.9-2.6,1.7-5.2,2.7-7.7c0.6-1.6,1.3-1.9,3-1.7c0.5,0.1,1,0.1,1.5,0.2c1.7,0.3,2.7,1.7,2.3,3.4c-0.4,1.6-1,3.2-1.4,4.9
		c-1,4.6-1.9,9.3-2.7,13.9c-0.2,0.8,0.1,1.8,0.3,2.7c0.3,1.3-0.3,3.1-1.4,3.8c-1,0.5-2,1-3,1.3c-1.2,0.4-2.2-0.3-2.8-1.3
		c-1-1.7-2-3.4-2.4-5.5c-0.6-3.6-2.2-6.9-4.1-10c-0.2-0.3-0.9-0.7-1.2-0.6c-0.4,0.1-0.8,0.7-0.8,1.1c0,1.5,0.2,3,0.4,4.4
		c0.6,3.7,0,7.2-2,10.4c-0.8,1.4-2.2,2.2-3.6,2.8c-1.8,0.8-3.5,1.7-5.3,2.4c-2.5,1-4.9,2-7.7,1.4c-1.5-0.3-2.7-1-3.6-2.1
		c-1.5-1.8-2.9-3.6-4.4-5.6c-0.2,0.3-0.6,0.6-0.7,1c-1.4,4.2-3.7,7.8-7.1,10.7c-1.8,1.5-3.2,1.6-5.3,0.4c-2.1-1.2-3.4-3.2-4.6-5.1
		c-0.4-0.6-0.6-1.5-0.7-2.2c-0.5-4.2,0.1-8.2,1.6-12.1c0.8-2.1,2.6-3.2,4.3-4.4c1.6-1.2,3.5-2,5.5-2.2c0.9-0.1,1.3-0.5,1.3-1.3
		c0.1-2.8,0.3-5.7,0.4-8.5c0-0.6,0-1.3,0.1-1.9c0.1-1.2-0.2-1.5-1.4-1.1c-1.1,0.3-2.1,0.8-3.1,1.1c-2,0.5-4,1.2-6.1,1.2
		c-3.9,0.1-7.9-0.6-10.8-3.6c-1.9-2-4-3.9-4.7-6.8c-0.2-0.6-0.1-1.4,0.1-2.1c0.2-1,0.8-1.2,1.8-1.2c2.4-0.1,4,1.1,5.1,2.9
		C9.2,19.7,12,20.7,16,20c3.1-0.5,5.8-1.6,8.5-3c1-0.5,1.3-1.2,1.2-2.4c-0.2-3.1-0.2-6.2,0.9-9.2C27.7,2.4,29.7-0.3,34,0
		c3.1,0.3,5.5,2.4,6.5,5.7c1.3,4.2-0.7,7.3-3,10.3c-1,1.3-2.4,2.3-3.7,3.4c-0.7,0.6-1,1.2-1,2.2c0.1,1.5,0.1,3,0.2,4.5
		c0.3,3.8,0.1,7.6-0.3,11.4c-0.2,2.2,0.3,4.2,1.9,5.9c1.1,1.2,1.7,2.7,2.6,4.1c0.8,1.3,1.5,2.6,2.4,3.8
		C39.9,51.8,40.3,52.4,41.2,52.1z M46.1,43.2c0.1,0,0.2,0,0.4,0.1c0,1-0.1,1.9,0,2.9c0,0.6,0.2,1.2,0.4,1.7c0.5,1,1.3,1.1,1.9,0.1
		c0.5-0.9,1-1.8,1.2-2.8c0.8-2.5,0.7-5.1,0.2-7.6c-0.1-0.7,0.1-1.7-0.8-1.7c-0.6,0-1.2,0.8-1.8,1.3c-0.2,0.2-0.3,0.4-0.3,0.7
		C46.9,39.6,46.5,41.4,46.1,43.2z M19.4,56.8c2.4-3.1,3.8-6.3,4.6-9.9c0.1-0.4-0.1-0.9-0.1-1.4C19.6,47,17.2,53.4,19.4,56.8z
		 M34.6,8.5c-1,0.1-1,0.1-0.9,1.1C34,9.2,34.3,8.9,34.6,8.5z"/>
	<path fill="#FFFFFF" d="M92.4,48.1c1.9-0.3,3.6,0.2,5.2,1c0.8,0.4,1.7,0.7,1.8,1.8c0.1,1.1-0.8,1.7-1.6,2c-3.2,1.2-6.4,2.1-9.8,1.4
		c-3.9-0.7-6.9-2.9-9.2-6c-1.3-1.9-2.3-4.1-2.8-6.3c-0.4-1.5,0.1-3.3,0.4-4.9c0.5-2.6,1.6-5.1,3.2-7.2c2.7-3.6,7.3-3.6,10.8-1.4
		c2.8,1.8,3.5,3.8,2.5,7c-0.2,0.7-0.3,1.5-0.5,2.3c-0.5,2-1.5,3.8-2.9,5.4c-0.7,0.9-1.5,1.8-2.1,2.8c-0.7,1.1-0.4,1.6,0.8,1.9
		c0.7,0.2,1.4,0.3,2.1,0.3C91,48.2,91.7,48.1,92.4,48.1z"/>
	<path fill="#FFFFFF" d="M174,151.8c-3.8,0.3-7.1-1.3-10.3-3c-3.5-1.8-6.6-4.1-9.3-6.9c-1.2-1.2-2.1-2.8-2.9-4.3
		c-0.8-1.8-0.4-3.2,0.6-3.8c1.3-0.8,3.4-0.5,4.5,0.7c0.8,0.9,1.6,1.9,2.4,2.8c2.8,3.3,6.4,5.7,10.4,7.3c2.7,1.1,5.6,1.1,8.5-0.1
		c2.5-1,4.9-2,6.7-4.1c1-1.2,2-2.5,2.8-3.9c1-1.8,3-2.6,5.3-1.8c1.9,0.6,3.1,2.6,2.4,4.5c-0.4,1.2-1.4,2.4-2.4,3.1
		c-2.1,1.4-3.7,3.2-5.6,4.7c-2.8,2.2-5.9,3.4-9.2,4.4C176.7,151.8,175.3,151.7,174,151.8z"/>
	<path fill="#FFFFFF" d="M236.9,48.4c-0.5,1.2-0.8,2.3-1.3,3.4c-1.3,2.7-3.2,5-5.9,6.5c-1.5,0.8-2.5,0.7-3.3-0.2
		c-1.3-1.5-1.5-3.1-0.6-4.3c0.8-1.1,1.6-2.2,2.5-3.3c0.9-1,1-2,0.7-3.2c-0.2-0.6-0.3-1.3-0.4-1.9c-0.2-1.2,0.3-2.2,1.2-2.8
		c1-0.7,1.8-0.2,2.6,0.5c1.2,0.9,2.6,1.5,3.4,2.8C236.1,46.6,236.5,47.5,236.9,48.4z"/>
	<path fill="#FFFFFF" d="M167,131.8c-2.7,0-4-1.3-3.9-3.9c0-2.7,1.5-3.7,3.3-3.7c2.2-0.1,4.6,1.8,4.6,3.3
		C170.8,129.8,169,131.8,167,131.8z"/>
	<path fill="#FFFFFF" d="M177.7,124.8c2,0,3.7,1.5,3.7,3.2c0,2.1-1.8,3.9-3.9,4c-1.5,0.1-3.4-2.2-3.3-4
		C174.1,126.1,175.5,124.8,177.7,124.8z"/>
</g>
</svg>
